<mxfile host="Electron" modified="2024-01-05T14:09:59.673Z" agent="Mozilla/5.0 (Windows NT 10.0; Win64; x64) AppleWebKit/537.36 (KHTML, like Gecko) draw.io/22.1.16 Chrome/120.0.6099.109 Electron/28.1.0 Safari/537.36" etag="6gAc-RgOKESH8I-oehMu" compressed="false" version="22.1.16" type="device">
  <diagram name="Zeichenblatt-1" id="Zeichenblatt-1">
    <mxGraphModel dx="584" dy="836" grid="1" gridSize="10" guides="1" tooltips="1" connect="1" arrows="1" fold="1" page="1" pageScale="1" pageWidth="850" pageHeight="1100" math="0" shadow="0">
      <root>
        <object tooltip="" id="0">
          <ag_global_attributes>
            <ag_global_attribute name="Resources" value="" iconName="hammer" min="0" max="5" />
            <ag_global_attribute name="Knowledge" value="" iconName="lightbulb" min="0" max="5" />
            <ag_global_attribute name="Location" value="" iconName="map_pin_ellipse" min="0" max="1" />
            <ag_global_attribute name="Impact" value="" iconName="flame" min="0" max="5" />
          </ag_global_attributes>
          <ag_attributes />
          <ag_computed_attributes />
          <ag_aggregation_functions>
            <ag_aggregation_function name="default" id="6b1d22791hih8" default="activity_w;link" fn="function (collection) { &#xa;    var result = null; &#xa;    if (collection.childAttributes.length == 1) { &#xa;        result = collection.childAttributes[0].attributes;&#xa;        result._marking = collection.childAttributes[0].id;&#xa;    } else { &#xa;        var candidates = []; &#xa;        var worstValue = 0; &#xa;        collection.childAttributes.forEach(function(child) { &#xa;            var value = parseInt(child.computedAttribute); &#xa;            if (value &gt; worstValue) { &#xa;                worstValue = value; &#xa;                candidates = []; &#xa;                candidates.push(child); &#xa;            } else if (value == worstValue) { &#xa;                candidates.push(child); &#xa;            } &#xa;        }); &#xa;        var tiebreaker = function(candidates, name, max) { &#xa;            var min_value = max; &#xa;            candidates.forEach(function(node) { &#xa;                min_value = Math.min(min_value, node.attributes[name]); &#xa;            }); &#xa;            result = []; &#xa;            candidates.forEach(function(node) { &#xa;                if (node.attributes[name] == min_value) { &#xa;                    result.push(node); &#xa;                } &#xa;            }); &#xa;            return result; &#xa;        }; &#xa;        if (candidates.length &gt; 1) { &#xa;            candidates = tiebreaker(candidates, &quot;Resources&quot;, collection.globalAttributes[&quot;Resources&quot;].max); &#xa;            if (candidates.length &gt; 1) { &#xa;                candidates = tiebreaker(candidates, &quot;Knowledge&quot;, collection.globalAttributes[&quot;Knowledge&quot;].max); &#xa;            } &#xa;        } &#xa;        result = candidates[0].attributes;&#xa;        result._marking = candidates[0].id;&#xa;    } &#xa;    return result; &#xa;}" />
            <ag_aggregation_function name="AND" id="gf0d4f199018" default="and" fn="function (collection) { &#xa;    var result = {}; &#xa;    var ids = [];&#xa;    collection.childAttributes.forEach(function(child) { &#xa;    for (var attribute in child.attributes) { &#xa;            if (attribute in result) { &#xa;                result[attribute] += parseInt(child.attributes[attribute]); &#xa;            } else { &#xa;                result[attribute] = parseInt(child.attributes[attribute]); &#xa;            } &#xa;        }&#xa;        ids.push(child.id);&#xa;    }); &#xa;    for (var attribute in result) { &#xa;        if (attribute in collection.globalAttributes) { &#xa;            result[attribute] = Math.min(collection.globalAttributes[attribute].max, result[attribute]); &#xa;        } &#xa;    }&#xa;    result._marking = ids.join(&quot;;&quot;);&#xa;    return result; &#xa;}" />
            <ag_aggregation_function name="Security Control" id="73f575i0ghij5" default="activity_g;activity_y" fn="function (collection) { &#xa;    var result = {}; &#xa;    for (var attribute in collection.localAttributes) { &#xa;        result[attribute] = parseInt(collection.localAttributes[attribute]); &#xa;    } &#xa;    collection.childAttributes.forEach(function(child) { &#xa;        for (var attribute in child.attributes) { &#xa;            if (attribute in collection.globalAttributes) { &#xa;                if (attribute in result) { &#xa;                    result[attribute] += parseInt(child.attributes[attribute]); &#xa;                } &#xa;            } &#xa;        } &#xa;    }); &#xa;    for (var attribute in result) { &#xa;        if (attribute in collection.globalAttributes) { &#xa;            result[attribute] = Math.min(collection.globalAttributes[attribute].max, result[attribute]); &#xa;        } &#xa;    } &#xa;    return result; &#xa;}" />
            <ag_aggregation_function name="Risk" id="egf49jfgj408" default="consequence" fn="function (collection) {  &#xa;    var maxRisk = &quot;L&quot;; &#xa;    var matrix = [ &#xa;        [&quot;L&quot;, &quot;L&quot;, &quot;L&quot;, &quot;L&quot;, &quot;L&quot;], &#xa;        [&quot;L&quot;, &quot;L&quot;, &quot;M&quot;, &quot;M&quot;, &quot;M&quot;], &#xa;        [&quot;L&quot;, &quot;M&quot;, &quot;M&quot;, &quot;S&quot;, &quot;S&quot;], &#xa;        [&quot;L&quot;, &quot;M&quot;, &quot;S&quot;, &quot;V&quot;, &quot;V&quot;], &#xa;        [&quot;L&quot;, &quot;M&quot;, &quot;S&quot;, &quot;V&quot;, &quot;V&quot;], &#xa;    ];&#xa;    var updatedImpacts = [];&#xa;    var ids = [];&#xa; &#xa;    var compareRisk = function(risk1, risk2) { &#xa;        /*&#xa;        * Returns:&#xa;        *  - Null: if one of the parameters is not a character representing a risk&#xa;        *  - Negativ integer: if risk1 &lt; risk2&#xa;        *  - Zero: if risks are equal&#xa;        *  - Positive integer: if risk1 &gt; risk2&#xa;        */&#xa;        var values = [&quot;L&quot;, &quot;M&quot;, &quot;S&quot;, &quot;V&quot;]; &#xa;        var index_risk1 = values.indexOf(risk1); &#xa;        var index_risk2 = values.indexOf(risk2); &#xa; &#xa;        if (index_risk1 == -1 || index_risk2 == -1) { &#xa;            return null; &#xa;        } &#xa;        return index_risk1 - index_risk2; &#xa; &#xa;    } &#xa;     &#xa;    collection.childAttributes.forEach(function(child) {  &#xa;        var impact = 1;  &#xa;        if (child.edgeWeight !== null) {  &#xa;            impact = parseInt(child.edgeWeight);  &#xa;        }&#xa;        var _impact = parseInt(child.attributes._impact) || 0;&#xa;        impact = Math.max(impact - _impact, 1);&#xa;        updatedImpacts.push(child.id + &#39;:&#39; + impact);&#xa;        var af = parseInt(child.computedAttribute) || parseInt(child.attributes._af);&#xa;        risk = matrix[af - 1][impact - 1];&#xa;        result = compareRisk(risk, maxRisk);&#xa;        if (result &gt; 0) { &#xa;            maxRisk = risk;&#xa;            ids = [child.id];&#xa;        } else if (result == 0){&#xa;            ids.push(child.id);&#xa;        }&#xa;    });  &#xa;  &#xa;    var result = {&#39;_risk&#39;: maxRisk, &quot;_marking&quot;: ids.join(&quot;;&quot;)};&#xa;    if (updatedImpacts.length &gt; 0) {&#xa;        result._weight = updatedImpacts.join(&#39;;&#39;);&#xa;    }&#xa;    return result;&#xa;}" />
            <ag_aggregation_function name="Impact" id="3j7heb16d5f6" default="" fn="function(collection) {&#xa;    var impact = 0;&#xa;    var result = {}&#xa;    &#xa;    collection.childAttributes.forEach(function(child) {&#xa;        if (&quot;Impact&quot; in child.attributes) {&#xa;            impact += parseInt(child.attributes[&quot;Impact&quot;]);&#xa;        } else if (&quot;Resources&quot; in child.attributes &amp;&amp; &quot;Knowledge&quot; in child.attributes &amp;&amp; &quot;Location&quot; in child.attributes) {&#xa;            result._af = child.computedAttribute&#xa;            result._marking = child.id;&#xa;        }&#xa;    });&#xa;    result._impact = Math.min(impact, collection.globalAttributes[&quot;Impact&quot;].max);&#xa;    &#xa;    return result;&#xa;}" />
          </ag_aggregation_functions>
          <ag_computed_attributes_functions>
            <ag_computed_attributes_function name="default" id="dbg60ff69g9a" default="activity_w;activity_g;activity_y" fn="function (collection) { &#xa;    var colorMatrix = {&#xa;        5: {&quot;fillColor&quot;: &quot;#cc0000&quot;, &quot;fontColor&quot;: &quot;#ffffff&quot;},&#xa;        4: {&quot;fillColor&quot;: &quot;#ff4000&quot;, &quot;fontColor&quot;: &quot;#ffffff&quot;},&#xa;        3: {&quot;fillColor&quot;: &quot;#ffdd00&quot;, &quot;fontColor&quot;: &quot;#000000&quot;},&#xa;        2: {&quot;fillColor&quot;: &quot;#d4ff00&quot;, &quot;fontColor&quot;: &quot;#000000&quot;},&#xa;        1: {&quot;fillColor&quot;: &quot;#40ff00&quot;, &quot;fontColor&quot;: &quot;#000000&quot;}&#xa;    }&#xa;    var matrix = [ &#xa;        [5, 5, 4, 3, 2], &#xa;        [5, 4, 4, 3, 2], &#xa;        [5, 4, 4, 3, 2], &#xa;        [4, 3, 3, 2, 1], &#xa;        [3, 2, 2, 1, 1], &#xa;    ];&#xa;    var result = {};&#xa;    &#xa;    if (&quot;Knowledge&quot; in collection.cellAttributes &amp;&amp; &quot;Resources&quot; in collection.cellAttributes) {&#xa;        var knowledgeIndex = parseInt(collection.cellAttributes[&quot;Knowledge&quot;]) - 1; &#xa;        var resourcesIndex = parseInt(collection.cellAttributes[&quot;Resources&quot;]) - 1;&#xa;        &#xa;        var value = Math.min(5, &#xa;            Math.max(collection.globalAttributes[&quot;Location&quot;].max, &#xa;                Math.max( matrix[knowledgeIndex][resourcesIndex] - parseInt(collection.cellAttributes[&quot;Location&quot;])) &#xa;            ));&#xa;        result = colorMatrix[value] || result;&#xa;        result[&quot;value&quot;] = value;&#xa;    }&#xa;    &#xa;    return result;&#xa;}" />
            <ag_computed_attributes_function name="Risk" id="6c831697g9i0a" default="consequence" fn="function(collection){&#xa;    var riskMatrix = {&#xa;        &quot;V&quot;: {&quot;fillColor&quot;: &quot;#cc0000&quot;, &quot;fontColor&quot;: &quot;#ffffff&quot;},&#xa;        &quot;S&quot;: {&quot;fillColor&quot;: &quot;#ff4000&quot;, &quot;fontColor&quot;: &quot;#ffffff&quot;},&#xa;        &quot;M&quot;: {&quot;fillColor&quot;: &quot;#ffdd00&quot;, &quot;fontColor&quot;: &quot;#000000&quot;},&#xa;        &quot;L&quot;: {&quot;fillColor&quot;: &quot;#40ff00&quot;, &quot;fontColor&quot;: &quot;#000000&quot;},&#xa;    };&#xa;    var result = {};&#xa;    &#xa;    if (&quot;_risk&quot; in collection.cellAttributes) {&#xa;        var risk = collection.cellAttributes[&quot;_risk&quot;];&#xa;        result = riskMatrix[risk] || result;&#xa;        result[&quot;value&quot;] = risk;&#xa;    }&#xa;    &#xa;    return result; &#xa;}" />
          </ag_computed_attributes_functions>
          <mxCell />
        </object>
        <object id="1">
          <ag_attributes />
          <ag_computed_attributes />
          <mxCell parent="0" />
        </object>
        <object label="Angriffsziel&#xa;Güterwegemanagement" id="pCnNo5EmcwS2ose940Cv-153">
          <ag_attributes />
          <ag_computed_attributes />
          <mxCell style="verticalAlign=middle;align=center;fillColor=#FFFFFF;gradientColor=none;labelBackgroundColor=none;rounded=0;whiteSpace=wrap;shape=trapezoid;size=0.07500000000000001;" parent="1" vertex="1">
            <mxGeometry x="2070" y="40" width="300" height="60" as="geometry" />
          </mxCell>
        </object>
        <object label="" id="GibcG0ukoYKMALdT_NOP-29">
          <ag_attributes />
          <ag_computed_attributes />
          <mxCell style="edgeStyle=none;rounded=0;orthogonalLoop=1;jettySize=auto;html=1;strokeWidth=2;strokeColor=#000000;" parent="1" source="klrI8ASNvey-aRUypi-8-154" target="GibcG0ukoYKMALdT_NOP-30" edge="1">
            <mxGeometry relative="1" as="geometry">
              <mxPoint x="1190" y="500" as="targetPoint" />
            </mxGeometry>
          </mxCell>
        </object>
        <object label="Unbrauchbarmachung der Bedarfsanmeldungen der Betreiber" Resources="" Knowledge="" Location="" id="klrI8ASNvey-aRUypi-8-154">
          <ag_attributes label="NaN" Resources="4" Knowledge="5" Location="0" _marking="GibcG0ukoYKMALdT_NOP-32" />
          <ag_computed_attributes fillColor="#40ff00" fontColor="#000000" value="1" />
          <ag_computed_attributes_function_reference ag_computed_attributes_function_reference="dbg60ff69g9a" />
          <ag_aggregation_function_reference ag_aggregation_function_reference="6b1d22791hih8" />
          <mxCell style="whiteSpace=wrap;shape=attackgraphs.node;verticalAlign=top;spacingRight=20;" parent="1" vertex="1">
            <mxGeometry x="967" y="360" width="196" height="75" as="geometry" />
          </mxCell>
        </object>
        <object label="2" id="GibcG0ukoYKMALdT_NOP-17">
          <ag_attributes />
          <ag_computed_attributes />
          <mxCell style="edgeStyle=none;rounded=0;orthogonalLoop=1;jettySize=auto;html=1;strokeWidth=2;fontSize=15;strokeColor=#000000;" parent="1" source="GibcG0ukoYKMALdT_NOP-2" target="GibcG0ukoYKMALdT_NOP-5" edge="1">
            <mxGeometry relative="1" as="geometry" />
          </mxCell>
        </object>
        <object label="Reputationsschaden Betreiber" id="GibcG0ukoYKMALdT_NOP-2">
          <ag_attributes _risk="L" _marking="GibcG0ukoYKMALdT_NOP-5;GibcG0ukoYKMALdT_NOP-8;klrI8ASNvey-aRUypi-8-154;GibcG0ukoYKMALdT_NOP-72" _weight="GibcG0ukoYKMALdT_NOP-5:2;GibcG0ukoYKMALdT_NOP-8:4;klrI8ASNvey-aRUypi-8-154:3;GibcG0ukoYKMALdT_NOP-72:3" />
          <ag_computed_attributes fillColor="#40ff00" fontColor="#000000" value="L" />
          <ag_computed_attributes_function_reference ag_computed_attributes_function_reference="6c831697g9i0a" />
          <ag_aggregation_function_reference ag_aggregation_function_reference="egf49jfgj408" />
          <mxCell style="rounded=1;whiteSpace=wrap;shape=attackgraphs.node;" parent="1" vertex="1">
            <mxGeometry x="1620" y="140" width="222" height="48" as="geometry" />
          </mxCell>
        </object>
        <object label="3" id="GibcG0ukoYKMALdT_NOP-18">
          <ag_attributes />
          <ag_computed_attributes />
          <mxCell style="edgeStyle=none;rounded=0;orthogonalLoop=1;jettySize=auto;html=1;strokeWidth=2;strokeColor=#000000;" parent="1" source="GibcG0ukoYKMALdT_NOP-3" target="klrI8ASNvey-aRUypi-8-154" edge="1">
            <mxGeometry relative="1" as="geometry" />
          </mxCell>
        </object>
        <object label="Chaos schüren" id="GibcG0ukoYKMALdT_NOP-3">
          <ag_attributes _risk="L" _marking="klrI8ASNvey-aRUypi-8-154" _weight="klrI8ASNvey-aRUypi-8-154:3" />
          <ag_computed_attributes fillColor="#40ff00" fontColor="#000000" value="L" />
          <ag_computed_attributes_function_reference ag_computed_attributes_function_reference="6c831697g9i0a" />
          <ag_aggregation_function_reference ag_aggregation_function_reference="egf49jfgj408" />
          <mxCell style="rounded=1;whiteSpace=wrap;shape=attackgraphs.node;" parent="1" vertex="1">
            <mxGeometry x="1000" y="140" width="222" height="48" as="geometry" />
          </mxCell>
        </object>
        <object label="3" id="GibcG0ukoYKMALdT_NOP-26">
          <ag_attributes />
          <ag_computed_attributes />
          <mxCell style="edgeStyle=none;rounded=0;orthogonalLoop=1;jettySize=auto;html=1;strokeWidth=2;fontSize=15;strokeColor=#000000;" parent="1" source="GibcG0ukoYKMALdT_NOP-4" target="GibcG0ukoYKMALdT_NOP-25" edge="1">
            <mxGeometry relative="1" as="geometry" />
          </mxCell>
        </object>
        <object label="Marktmanipulation&#xa;zum Schaden/Vorteil einer Gruppe" id="GibcG0ukoYKMALdT_NOP-4">
          <ag_attributes _risk="L" _marking="GibcG0ukoYKMALdT_NOP-25;GibcG0ukoYKMALdT_NOP-44" _weight="GibcG0ukoYKMALdT_NOP-25:3;GibcG0ukoYKMALdT_NOP-44:3" />
          <ag_computed_attributes fillColor="#40ff00" fontColor="#000000" value="L" />
          <ag_computed_attributes_function_reference ag_computed_attributes_function_reference="6c831697g9i0a" />
          <ag_aggregation_function_reference ag_aggregation_function_reference="egf49jfgj408" />
          <mxCell style="rounded=1;whiteSpace=wrap;shape=attackgraphs.node;" parent="1" vertex="1">
            <mxGeometry x="2880" y="140" width="222" height="48" as="geometry" />
          </mxCell>
        </object>
        <object label="" id="GibcG0ukoYKMALdT_NOP-63">
          <ag_attributes />
          <ag_computed_attributes />
          <mxCell style="edgeStyle=none;rounded=0;orthogonalLoop=1;jettySize=auto;html=1;strokeWidth=2;strokeColor=#000000;" parent="1" source="GibcG0ukoYKMALdT_NOP-5" target="GibcG0ukoYKMALdT_NOP-30" edge="1">
            <mxGeometry relative="1" as="geometry" />
          </mxCell>
        </object>
        <object label="Manipulation der Informationen über die Fracht&#xa;(Lieferzeit, -ort, -anforderugen, ...)" Resources="" Knowledge="" Location="" id="GibcG0ukoYKMALdT_NOP-5">
          <ag_attributes label="NaN" Resources="4" Knowledge="5" Location="0" _marking="GibcG0ukoYKMALdT_NOP-66" />
          <ag_computed_attributes fillColor="#40ff00" fontColor="#000000" value="1" />
          <ag_computed_attributes_function_reference ag_computed_attributes_function_reference="dbg60ff69g9a" />
          <ag_aggregation_function_reference ag_aggregation_function_reference="6b1d22791hih8" />
          <mxCell style="whiteSpace=wrap;shape=attackgraphs.node;verticalAlign=top;spacingRight=20;" parent="1" vertex="1">
            <mxGeometry x="1670" y="360" width="220" height="75" as="geometry" />
          </mxCell>
        </object>
        <object label="Manipulation der Messdaten zum Ist-Zustand der Lieferung" Resources="" Knowledge="" Location="" id="GibcG0ukoYKMALdT_NOP-6">
          <ag_attributes label="NaN" Resources="4" Knowledge="4" Location="1" _marking="GibcG0ukoYKMALdT_NOP-33" />
          <ag_computed_attributes fillColor="#40ff00" fontColor="#000000" value="1" />
          <ag_computed_attributes_function_reference ag_computed_attributes_function_reference="dbg60ff69g9a" />
          <ag_aggregation_function_reference ag_aggregation_function_reference="6b1d22791hih8" />
          <mxCell style="whiteSpace=wrap;shape=attackgraphs.node;verticalAlign=top;" parent="1" vertex="1">
            <mxGeometry x="2055" y="370" width="150" height="75" as="geometry" />
          </mxCell>
        </object>
        <object label="Manipulation Algorithmik zur Berechnung/Planung Kapazitäten und Laufwege" Resources="" Knowledge="" Location="" id="GibcG0ukoYKMALdT_NOP-7">
          <ag_attributes label="NaN" Resources="5" Knowledge="5" Location="1" _marking="GibcG0ukoYKMALdT_NOP-30" />
          <ag_computed_attributes fillColor="#40ff00" fontColor="#000000" value="1" />
          <ag_computed_attributes_function_reference ag_computed_attributes_function_reference="dbg60ff69g9a" />
          <ag_aggregation_function_reference ag_aggregation_function_reference="6b1d22791hih8" />
          <mxCell style="whiteSpace=wrap;shape=attackgraphs.node;verticalAlign=top;spacingRight=20;" parent="1" vertex="1">
            <mxGeometry x="2230" y="372.5" width="185" height="75" as="geometry" />
          </mxCell>
        </object>
        <object label="" id="GibcG0ukoYKMALdT_NOP-43">
          <ag_attributes />
          <ag_computed_attributes />
          <mxCell style="edgeStyle=none;rounded=0;orthogonalLoop=1;jettySize=auto;html=1;strokeWidth=2;strokeColor=#000000;" parent="1" source="GibcG0ukoYKMALdT_NOP-8" target="GibcG0ukoYKMALdT_NOP-41" edge="1">
            <mxGeometry relative="1" as="geometry" />
          </mxCell>
        </object>
        <object label="Störung der Algorithmik zur Berechnung/Planung Kapazitäten und Laufwege" Resources="" Knowledge="" Location="" id="GibcG0ukoYKMALdT_NOP-8">
          <ag_attributes label="NaN" Resources="5" Knowledge="5" Location="1" _marking="GibcG0ukoYKMALdT_NOP-41" />
          <ag_computed_attributes fillColor="#40ff00" fontColor="#000000" value="1" />
          <ag_computed_attributes_function_reference ag_computed_attributes_function_reference="dbg60ff69g9a" />
          <ag_aggregation_function_reference ag_aggregation_function_reference="6b1d22791hih8" />
          <mxCell style="whiteSpace=wrap;shape=attackgraphs.node;verticalAlign=top;spacingRight=20;" parent="1" vertex="1">
            <mxGeometry x="2474" y="370" width="176" height="75" as="geometry" />
          </mxCell>
        </object>
        <object label="" id="GibcG0ukoYKMALdT_NOP-14">
          <ag_attributes />
          <ag_computed_attributes />
          <mxCell style="edgeStyle=none;rounded=0;orthogonalLoop=1;jettySize=auto;html=1;strokeWidth=2;strokeColor=#000000;" parent="1" source="GibcG0ukoYKMALdT_NOP-9" target="GibcG0ukoYKMALdT_NOP-7" edge="1">
            <mxGeometry relative="1" as="geometry" />
          </mxCell>
        </object>
        <object label="4" id="GibcG0ukoYKMALdT_NOP-15">
          <ag_attributes />
          <ag_computed_attributes />
          <mxCell style="edgeStyle=none;rounded=0;orthogonalLoop=1;jettySize=auto;html=1;strokeWidth=2;fontSize=15;strokeColor=#000000;" parent="1" source="GibcG0ukoYKMALdT_NOP-9" target="GibcG0ukoYKMALdT_NOP-7" edge="1">
            <mxGeometry relative="1" as="geometry" />
          </mxCell>
        </object>
        <object label="Finanzieller Schaden Betreiber" id="GibcG0ukoYKMALdT_NOP-9">
          <ag_attributes _risk="L" _marking="GibcG0ukoYKMALdT_NOP-7;GibcG0ukoYKMALdT_NOP-6;GibcG0ukoYKMALdT_NOP-8;klrI8ASNvey-aRUypi-8-154" _weight="GibcG0ukoYKMALdT_NOP-7:NaN;GibcG0ukoYKMALdT_NOP-7:4;GibcG0ukoYKMALdT_NOP-6:2;GibcG0ukoYKMALdT_NOP-8:3;klrI8ASNvey-aRUypi-8-154:4" />
          <ag_computed_attributes fillColor="#40ff00" fontColor="#000000" value="L" />
          <ag_computed_attributes_function_reference ag_computed_attributes_function_reference="6c831697g9i0a" />
          <ag_aggregation_function_reference ag_aggregation_function_reference="egf49jfgj408" />
          <mxCell style="rounded=1;whiteSpace=wrap;shape=attackgraphs.node;" parent="1" vertex="1">
            <mxGeometry x="2160" y="140" width="222" height="48" as="geometry" />
          </mxCell>
        </object>
        <object label="2" id="GibcG0ukoYKMALdT_NOP-16">
          <ag_attributes />
          <ag_computed_attributes />
          <mxCell style="edgeStyle=none;rounded=0;orthogonalLoop=1;jettySize=auto;html=1;strokeWidth=2;fontSize=15;strokeColor=#000000;" parent="1" source="GibcG0ukoYKMALdT_NOP-9" target="GibcG0ukoYKMALdT_NOP-6" edge="1">
            <mxGeometry relative="1" as="geometry">
              <mxPoint x="2296.6226415094343" y="198" as="sourcePoint" />
              <mxPoint x="2330.471698113208" y="250" as="targetPoint" />
            </mxGeometry>
          </mxCell>
        </object>
        <object label="4" id="GibcG0ukoYKMALdT_NOP-23">
          <ag_attributes />
          <ag_computed_attributes />
          <mxCell style="edgeStyle=none;rounded=0;orthogonalLoop=1;jettySize=auto;html=1;strokeWidth=2;fontSize=15;strokeColor=#000000;" parent="1" source="GibcG0ukoYKMALdT_NOP-2" target="GibcG0ukoYKMALdT_NOP-8" edge="1">
            <mxGeometry relative="1" as="geometry">
              <mxPoint x="2246.276595744681" y="110" as="sourcePoint" />
              <mxPoint x="2267.9787234042556" y="150" as="targetPoint" />
            </mxGeometry>
          </mxCell>
        </object>
        <object label="3" id="GibcG0ukoYKMALdT_NOP-24">
          <ag_attributes />
          <ag_computed_attributes />
          <mxCell style="edgeStyle=none;rounded=0;orthogonalLoop=1;jettySize=auto;html=1;strokeWidth=2;fontSize=15;strokeColor=#000000;" parent="1" source="GibcG0ukoYKMALdT_NOP-9" target="GibcG0ukoYKMALdT_NOP-8" edge="1">
            <mxGeometry relative="1" as="geometry">
              <mxPoint x="2256.276595744681" y="120" as="sourcePoint" />
              <mxPoint x="2277.9787234042556" y="160" as="targetPoint" />
            </mxGeometry>
          </mxCell>
        </object>
        <object label="" id="GibcG0ukoYKMALdT_NOP-56">
          <ag_attributes />
          <ag_computed_attributes />
          <mxCell style="edgeStyle=none;rounded=0;orthogonalLoop=1;jettySize=auto;html=1;strokeWidth=2;entryX=1;entryY=0.5;entryDx=0;entryDy=0;entryPerimeter=0;strokeColor=#000000;" parent="1" source="GibcG0ukoYKMALdT_NOP-25" target="SLV6t_ctuBkV2WSloGJu-2" edge="1">
            <mxGeometry relative="1" as="geometry">
              <mxPoint x="2805" y="504.75" as="targetPoint" />
            </mxGeometry>
          </mxCell>
        </object>
        <object label="Manipulation ausgewählter Datensätze mit Bedarfsinformationen der Fracht (Ort, Lieferzeit, ...)" Resources="" Knowledge="" Location="" id="GibcG0ukoYKMALdT_NOP-25">
          <ag_attributes label="NaN" Resources="5" Knowledge="5" Location="0" _marking="SLV6t_ctuBkV2WSloGJu-2" />
          <ag_computed_attributes fillColor="#40ff00" fontColor="#000000" value="1" />
          <ag_computed_attributes_function_reference ag_computed_attributes_function_reference="dbg60ff69g9a" />
          <ag_aggregation_function_reference ag_aggregation_function_reference="6b1d22791hih8" />
          <mxCell style="whiteSpace=wrap;shape=attackgraphs.node;verticalAlign=top;" parent="1" vertex="1">
            <mxGeometry x="2710" y="370" width="190" height="90" as="geometry" />
          </mxCell>
        </object>
        <object id="xFWX6aBsAHrzGVwmru2x-5">
          <ag_attributes />
          <ag_computed_attributes />
          <mxCell style="edgeStyle=none;rounded=0;orthogonalLoop=1;jettySize=auto;html=1;strokeWidth=2;startArrow=diamondThin;startFill=1;endArrow=none;endFill=0;strokeColor=#000000;" parent="1" source="GibcG0ukoYKMALdT_NOP-30" target="xFWX6aBsAHrzGVwmru2x-8" edge="1">
            <mxGeometry relative="1" as="geometry" />
          </mxCell>
        </object>
        <object label="Manipulation Datenbestand Rechenzentrum" Resources="3" Knowledge="4" Location="0" id="GibcG0ukoYKMALdT_NOP-30">
          <ag_attributes label="NaN" Resources="5" Knowledge="5" Location="1" />
          <ag_computed_attributes fillColor="#40ff00" fontColor="#000000" value="1" />
          <ag_computed_attributes_function_reference ag_computed_attributes_function_reference="dbg60ff69g9a" />
          <ag_aggregation_function_reference ag_aggregation_function_reference="73f575i0ghij5" />
          <mxCell style="fillColor=#fee599;whiteSpace=wrap;shape=attackgraphs.node;verticalAlign=top;spacingRight=20;" parent="1" vertex="1">
            <mxGeometry x="1750" y="620" width="170" height="60" as="geometry" />
          </mxCell>
        </object>
        <object label="" id="GibcG0ukoYKMALdT_NOP-31">
          <ag_attributes />
          <ag_computed_attributes />
          <mxCell style="edgeStyle=none;rounded=0;orthogonalLoop=1;jettySize=auto;html=1;strokeWidth=2;strokeColor=#000000;" parent="1" source="klrI8ASNvey-aRUypi-8-154" target="GibcG0ukoYKMALdT_NOP-32" edge="1">
            <mxGeometry relative="1" as="geometry">
              <mxPoint x="1152.7142857142858" y="459.99999999999955" as="sourcePoint" />
              <mxPoint x="1036.8000000000006" y="489.99999999999955" as="targetPoint" />
            </mxGeometry>
          </mxCell>
        </object>
        <object id="xFWX6aBsAHrzGVwmru2x-7">
          <ag_attributes />
          <ag_computed_attributes />
          <mxCell style="edgeStyle=none;rounded=0;orthogonalLoop=1;jettySize=auto;html=1;strokeWidth=2;entryX=0.5;entryY=0;entryDx=0;entryDy=0;startArrow=diamondThin;startFill=1;endArrow=none;endFill=0;strokeColor=#000000;" parent="1" source="GibcG0ukoYKMALdT_NOP-32" target="xFWX6aBsAHrzGVwmru2x-6" edge="1">
            <mxGeometry relative="1" as="geometry" />
          </mxCell>
        </object>
        <object label="Denial of Service Rechenzentrum" Resources="2" Knowledge="3" Location="0" id="GibcG0ukoYKMALdT_NOP-32">
          <ag_attributes label="NaN" Resources="4" Knowledge="5" Location="0" />
          <ag_computed_attributes fillColor="#40ff00" fontColor="#000000" value="1" />
          <ag_computed_attributes_function_reference ag_computed_attributes_function_reference="dbg60ff69g9a" />
          <ag_aggregation_function_reference ag_aggregation_function_reference="73f575i0ghij5" />
          <mxCell style="fillColor=#d7e3bf;whiteSpace=wrap;shape=attackgraphs.node;verticalAlign=top;" parent="1" vertex="1">
            <mxGeometry x="990" y="620" width="150" height="60" as="geometry" />
          </mxCell>
        </object>
        <object id="xFWX6aBsAHrzGVwmru2x-23">
          <ag_attributes />
          <ag_computed_attributes />
          <mxCell style="edgeStyle=none;rounded=0;orthogonalLoop=1;jettySize=auto;html=1;strokeWidth=2;startArrow=diamondThin;startFill=1;endArrow=none;endFill=0;strokeColor=#000000;" parent="1" source="GibcG0ukoYKMALdT_NOP-33" target="xFWX6aBsAHrzGVwmru2x-22" edge="1">
            <mxGeometry relative="1" as="geometry">
              <mxPoint x="2210" y="960" as="targetPoint" />
            </mxGeometry>
          </mxCell>
        </object>
        <object label="Manipulation Lokalisierungsinformationen" Resources="2" Knowledge="2" Location="0" id="GibcG0ukoYKMALdT_NOP-33">
          <ag_attributes label="NaN" Resources="4" Knowledge="4" Location="1" />
          <ag_computed_attributes fillColor="#40ff00" fontColor="#000000" value="1" />
          <ag_computed_attributes_function_reference ag_computed_attributes_function_reference="dbg60ff69g9a" />
          <ag_aggregation_function_reference ag_aggregation_function_reference="73f575i0ghij5" />
          <mxCell style="fillColor=#fee599;whiteSpace=wrap;shape=attackgraphs.node;verticalAlign=top;" parent="1" vertex="1">
            <mxGeometry x="2050" y="620" width="160" height="60" as="geometry" />
          </mxCell>
        </object>
        <object id="xFWX6aBsAHrzGVwmru2x-24">
          <ag_attributes />
          <ag_computed_attributes />
          <mxCell style="edgeStyle=none;rounded=0;orthogonalLoop=1;jettySize=auto;html=1;strokeWidth=2;startArrow=diamondThin;startFill=1;endArrow=none;endFill=0;strokeColor=#000000;" parent="1" source="GibcG0ukoYKMALdT_NOP-30" target="xFWX6aBsAHrzGVwmru2x-22" edge="1">
            <mxGeometry relative="1" as="geometry" />
          </mxCell>
        </object>
        <object label="" id="GibcG0ukoYKMALdT_NOP-37">
          <ag_attributes />
          <ag_computed_attributes />
          <mxCell style="edgeStyle=none;rounded=0;orthogonalLoop=1;jettySize=auto;html=1;strokeWidth=2;strokeColor=#000000;" parent="1" source="GibcG0ukoYKMALdT_NOP-6" target="GibcG0ukoYKMALdT_NOP-33" edge="1">
            <mxGeometry relative="1" as="geometry">
              <mxPoint x="1702.7142857142858" y="459.99999999999955" as="sourcePoint" />
              <mxPoint x="1745" y="499.99999999999955" as="targetPoint" />
            </mxGeometry>
          </mxCell>
        </object>
        <object label="" id="GibcG0ukoYKMALdT_NOP-38">
          <ag_attributes />
          <ag_computed_attributes />
          <mxCell style="edgeStyle=none;rounded=0;orthogonalLoop=1;jettySize=auto;html=1;strokeWidth=2;strokeColor=#000000;" parent="1" source="GibcG0ukoYKMALdT_NOP-7" target="GibcG0ukoYKMALdT_NOP-30" edge="1">
            <mxGeometry relative="1" as="geometry">
              <mxPoint x="2163" y="459.99999999999955" as="sourcePoint" />
              <mxPoint x="2147" y="499.99999999999955" as="targetPoint" />
              <Array as="points" />
            </mxGeometry>
          </mxCell>
        </object>
        <object label="" id="GibcG0ukoYKMALdT_NOP-40">
          <ag_attributes />
          <ag_computed_attributes />
          <mxCell style="edgeStyle=none;rounded=0;orthogonalLoop=1;jettySize=auto;html=1;strokeWidth=2;strokeColor=#000000;" parent="1" source="GibcG0ukoYKMALdT_NOP-6" target="GibcG0ukoYKMALdT_NOP-30" edge="1">
            <mxGeometry relative="1" as="geometry">
              <mxPoint x="2214.0000000000005" y="459.99999999999955" as="sourcePoint" />
              <mxPoint x="2266" y="499.99999999999955" as="targetPoint" />
            </mxGeometry>
          </mxCell>
        </object>
        <object id="xFWX6aBsAHrzGVwmru2x-21">
          <ag_attributes />
          <ag_computed_attributes />
          <mxCell style="edgeStyle=none;rounded=0;orthogonalLoop=1;jettySize=auto;html=1;strokeWidth=2;startArrow=diamondThin;startFill=1;endArrow=none;endFill=0;strokeColor=#000000;" parent="1" source="GibcG0ukoYKMALdT_NOP-41" target="xFWX6aBsAHrzGVwmru2x-19" edge="1">
            <mxGeometry relative="1" as="geometry" />
          </mxCell>
        </object>
        <object label="Zugriff Daten Rechenzentrum" Resources="2" Knowledge="4" Location="0" id="GibcG0ukoYKMALdT_NOP-41">
          <ag_attributes label="NaN" Resources="5" Knowledge="5" Location="1" />
          <ag_computed_attributes fillColor="#40ff00" fontColor="#000000" value="1" />
          <ag_computed_attributes_function_reference ag_computed_attributes_function_reference="dbg60ff69g9a" />
          <ag_aggregation_function_reference ag_aggregation_function_reference="73f575i0ghij5" />
          <mxCell style="fillColor=#fee599;whiteSpace=wrap;shape=attackgraphs.node;verticalAlign=top;" parent="1" vertex="1">
            <mxGeometry x="2474" y="620" width="150" height="60" as="geometry" />
          </mxCell>
        </object>
        <object label="Wissen über Datensatz, Ziel und Art der notwendigen Manipulation (Verständnis Algorithmus)" Resources="3" Knowledge="4" Location="0" id="GibcG0ukoYKMALdT_NOP-42">
          <ag_attributes label="NaN" Resources="5" Knowledge="5" Location="0" />
          <ag_computed_attributes fillColor="#40ff00" fontColor="#000000" value="1" />
          <ag_computed_attributes_function_reference ag_computed_attributes_function_reference="dbg60ff69g9a" />
          <ag_aggregation_function_reference ag_aggregation_function_reference="73f575i0ghij5" />
          <mxCell style="whiteSpace=wrap;fillColor=#d7e3bf;shape=attackgraphs.node;verticalAlign=top;spacingRight=20;" parent="1" vertex="1">
            <mxGeometry x="3060" y="620" width="210" height="75" as="geometry" />
          </mxCell>
        </object>
        <object label="" id="GibcG0ukoYKMALdT_NOP-47">
          <ag_attributes />
          <ag_computed_attributes />
          <mxCell style="edgeStyle=none;rounded=0;orthogonalLoop=1;jettySize=auto;html=1;strokeWidth=2;entryX=1;entryY=0.5;entryDx=0;entryDy=0;entryPerimeter=0;strokeColor=#000000;" parent="1" source="GibcG0ukoYKMALdT_NOP-44" target="SLV6t_ctuBkV2WSloGJu-5" edge="1">
            <mxGeometry relative="1" as="geometry">
              <mxPoint x="3082.5" y="440" as="sourcePoint" />
              <mxPoint x="3152.5" y="492.5" as="targetPoint" />
            </mxGeometry>
          </mxCell>
        </object>
        <object label="Zielgerichtete &#xa;Manipulation Algorithmik zur Berechnung/Planung Kapazitäten und Laufwege" Resources="" Knowledge="" Location="" id="GibcG0ukoYKMALdT_NOP-44">
          <ag_attributes label="NaN" Resources="5" Knowledge="5" Location="1" _marking="SLV6t_ctuBkV2WSloGJu-5" />
          <ag_computed_attributes fillColor="#40ff00" fontColor="#000000" value="1" />
          <ag_computed_attributes_function_reference ag_computed_attributes_function_reference="dbg60ff69g9a" />
          <ag_aggregation_function_reference ag_aggregation_function_reference="6b1d22791hih8" />
          <mxCell style="whiteSpace=wrap;shape=attackgraphs.node;verticalAlign=top;" parent="1" vertex="1">
            <mxGeometry x="3060" y="370" width="190" height="90" as="geometry" />
          </mxCell>
        </object>
        <object label="" id="GibcG0ukoYKMALdT_NOP-48">
          <ag_attributes />
          <ag_computed_attributes />
          <mxCell style="edgeStyle=none;rounded=0;orthogonalLoop=1;jettySize=auto;html=1;exitX=0;exitY=0.25;exitDx=0;exitDy=0;exitPerimeter=0;strokeWidth=2;strokeColor=#000000;" parent="1" source="SLV6t_ctuBkV2WSloGJu-5" target="GibcG0ukoYKMALdT_NOP-41" edge="1">
            <mxGeometry relative="1" as="geometry">
              <mxPoint x="3137.5" y="527.5" as="sourcePoint" />
              <Array as="points">
                <mxPoint x="3140" y="580" />
                <mxPoint x="2610" y="580" />
              </Array>
            </mxGeometry>
          </mxCell>
        </object>
        <object label="" id="GibcG0ukoYKMALdT_NOP-49">
          <ag_attributes />
          <ag_computed_attributes />
          <mxCell style="edgeStyle=none;rounded=0;orthogonalLoop=1;jettySize=auto;html=1;exitX=0;exitY=0.65;exitDx=0;exitDy=0;exitPerimeter=0;strokeWidth=2;strokeColor=#000000;" parent="1" source="SLV6t_ctuBkV2WSloGJu-5" target="GibcG0ukoYKMALdT_NOP-42" edge="1">
            <mxGeometry relative="1" as="geometry">
              <mxPoint x="3167.5" y="527.5" as="sourcePoint" />
              <mxPoint x="3076.428571428571" y="540" as="targetPoint" />
            </mxGeometry>
          </mxCell>
        </object>
        <object label="3" id="GibcG0ukoYKMALdT_NOP-50">
          <ag_attributes />
          <ag_computed_attributes />
          <mxCell style="edgeStyle=none;rounded=0;orthogonalLoop=1;jettySize=auto;html=1;strokeWidth=2;fontSize=15;strokeColor=#000000;" parent="1" source="GibcG0ukoYKMALdT_NOP-4" target="GibcG0ukoYKMALdT_NOP-44" edge="1">
            <mxGeometry relative="1" as="geometry">
              <mxPoint x="2581.8349514563106" y="198" as="sourcePoint" />
              <mxPoint x="2726.4563106796113" y="350" as="targetPoint" />
            </mxGeometry>
          </mxCell>
        </object>
        <object id="zgUMjGu3cQBzoBFUC8GA-3">
          <ag_attributes />
          <ag_computed_attributes />
          <mxCell style="rounded=0;orthogonalLoop=1;jettySize=auto;html=1;strokeWidth=2;endArrow=none;startArrow=diamondThin;startFill=1;endFill=0;strokeColor=#000000;" parent="1" source="GibcG0ukoYKMALdT_NOP-51" target="zgUMjGu3cQBzoBFUC8GA-1" edge="1">
            <mxGeometry relative="1" as="geometry" />
          </mxCell>
        </object>
        <object label="Strategisches und logisches Wissen zur &quot;unauffälligen&quot; Manipulation" Resources="2" Knowledge="4" Location="0" id="GibcG0ukoYKMALdT_NOP-51">
          <ag_attributes label="NaN" Resources="5" Knowledge="5" Location="0" />
          <ag_computed_attributes fillColor="#40ff00" fontColor="#000000" value="1" />
          <ag_computed_attributes_function_reference ag_computed_attributes_function_reference="dbg60ff69g9a" />
          <ag_aggregation_function_reference ag_aggregation_function_reference="73f575i0ghij5" />
          <mxCell style="whiteSpace=wrap;fillColor=#d7e3bf;shape=attackgraphs.node;verticalAlign=top;" parent="1" vertex="1">
            <mxGeometry x="2745" y="620" width="150" height="75" as="geometry" />
          </mxCell>
        </object>
        <object label="" id="GibcG0ukoYKMALdT_NOP-53">
          <ag_attributes />
          <ag_computed_attributes />
          <mxCell style="edgeStyle=none;rounded=0;orthogonalLoop=1;jettySize=auto;html=1;exitX=0;exitY=0.25;exitDx=0;exitDy=0;exitPerimeter=0;strokeWidth=2;jumpStyle=none;strokeColor=#000000;" parent="1" source="SLV6t_ctuBkV2WSloGJu-2" target="GibcG0ukoYKMALdT_NOP-66" edge="1">
            <mxGeometry relative="1" as="geometry">
              <mxPoint x="2799.2857142857147" y="669.9999999999995" as="targetPoint" />
              <mxPoint x="2797.5" y="535" as="sourcePoint" />
              <Array as="points">
                <mxPoint x="2790" y="570" />
                <mxPoint x="1720" y="570" />
              </Array>
            </mxGeometry>
          </mxCell>
        </object>
        <object label="" id="GibcG0ukoYKMALdT_NOP-55">
          <ag_attributes />
          <ag_computed_attributes />
          <mxCell style="edgeStyle=none;rounded=0;orthogonalLoop=1;jettySize=auto;html=1;exitX=0;exitY=0.75;exitDx=0;exitDy=0;exitPerimeter=0;strokeWidth=2;strokeColor=#000000;" parent="1" source="SLV6t_ctuBkV2WSloGJu-2" target="GibcG0ukoYKMALdT_NOP-51" edge="1">
            <mxGeometry relative="1" as="geometry">
              <mxPoint x="2815" y="535.25" as="sourcePoint" />
              <mxPoint x="2746.428571428571" y="540" as="targetPoint" />
            </mxGeometry>
          </mxCell>
        </object>
        <object label="" id="GibcG0ukoYKMALdT_NOP-60">
          <ag_attributes />
          <ag_computed_attributes />
          <mxCell style="edgeStyle=none;rounded=0;orthogonalLoop=1;jettySize=auto;html=1;strokeWidth=1;strokeColor=#000000;" parent="1" edge="1">
            <mxGeometry relative="1" as="geometry">
              <mxPoint x="2739.571428571429" y="630" as="sourcePoint" />
            </mxGeometry>
          </mxCell>
        </object>
        <object label="" id="GibcG0ukoYKMALdT_NOP-61">
          <ag_attributes />
          <ag_computed_attributes />
          <mxCell style="edgeStyle=none;rounded=0;orthogonalLoop=1;jettySize=auto;html=1;strokeWidth=1;strokeColor=#000000;" parent="1" edge="1">
            <mxGeometry relative="1" as="geometry">
              <mxPoint x="2707.857142857143" y="630" as="sourcePoint" />
            </mxGeometry>
          </mxCell>
        </object>
        <object label="" id="GibcG0ukoYKMALdT_NOP-64">
          <ag_attributes />
          <ag_computed_attributes />
          <mxCell style="edgeStyle=none;rounded=0;orthogonalLoop=1;jettySize=auto;html=1;strokeWidth=2;strokeColor=#000000;" parent="1" source="GibcG0ukoYKMALdT_NOP-66" target="GibcG0ukoYKMALdT_NOP-68" edge="1">
            <mxGeometry relative="1" as="geometry" />
          </mxCell>
        </object>
        <object label="" id="GibcG0ukoYKMALdT_NOP-65">
          <ag_attributes />
          <ag_computed_attributes />
          <mxCell style="edgeStyle=none;rounded=0;orthogonalLoop=1;jettySize=auto;html=1;strokeWidth=2;strokeColor=#000000;" parent="1" source="GibcG0ukoYKMALdT_NOP-66" target="OEw5c0MragIOnn9nujKi-1" edge="1">
            <mxGeometry relative="1" as="geometry" />
          </mxCell>
        </object>
        <object label="Zugriff &quot;Meldeportal&quot;&#xa;für Bedarfsmeldung" Resources="" Knowledge="" Location="" id="GibcG0ukoYKMALdT_NOP-66">
          <ag_attributes label="NaN" Resources="4" Knowledge="5" Location="0" _marking="OEw5c0MragIOnn9nujKi-1" />
          <ag_computed_attributes fillColor="#40ff00" fontColor="#000000" value="1" />
          <ag_computed_attributes_function_reference ag_computed_attributes_function_reference="dbg60ff69g9a" />
          <ag_aggregation_function_reference ag_aggregation_function_reference="6b1d22791hih8" />
          <mxCell style="whiteSpace=wrap;shape=attackgraphs.node;verticalAlign=top;spacingRight=20;" parent="1" vertex="1">
            <mxGeometry x="1460" y="620" width="150" height="60" as="geometry" />
          </mxCell>
        </object>
        <object id="xFWX6aBsAHrzGVwmru2x-12">
          <ag_attributes />
          <ag_computed_attributes />
          <mxCell style="edgeStyle=none;rounded=0;orthogonalLoop=1;jettySize=auto;html=1;strokeWidth=2;startArrow=diamondThin;startFill=1;endArrow=none;endFill=0;strokeColor=#000000;" parent="1" source="GibcG0ukoYKMALdT_NOP-68" target="xFWX6aBsAHrzGVwmru2x-11" edge="1">
            <mxGeometry relative="1" as="geometry" />
          </mxCell>
        </object>
        <object id="xFWX6aBsAHrzGVwmru2x-13">
          <ag_attributes />
          <ag_computed_attributes />
          <mxCell style="edgeStyle=none;rounded=0;orthogonalLoop=1;jettySize=auto;html=1;strokeWidth=2;startArrow=diamondThin;startFill=1;endArrow=none;endFill=0;strokeColor=#000000;" parent="1" source="GibcG0ukoYKMALdT_NOP-68" target="xFWX6aBsAHrzGVwmru2x-8" edge="1">
            <mxGeometry relative="1" as="geometry" />
          </mxCell>
        </object>
        <object label="Erschleichen der Zugangsdaten eines Lieferanten" Resources="2" Knowledge="3" Location="0" id="GibcG0ukoYKMALdT_NOP-68">
          <ag_attributes label="NaN" Resources="5" Knowledge="5" Location="0" />
          <ag_computed_attributes fillColor="#40ff00" fontColor="#000000" value="1" />
          <ag_computed_attributes_function_reference ag_computed_attributes_function_reference="dbg60ff69g9a" />
          <ag_aggregation_function_reference ag_aggregation_function_reference="73f575i0ghij5" />
          <mxCell style="whiteSpace=wrap;fillColor=#d7e3bf;shape=attackgraphs.node;verticalAlign=top;spacingRight=20;spacingLeft=15;" parent="1" vertex="1">
            <mxGeometry x="1560" y="790" width="210" height="70" as="geometry" />
          </mxCell>
        </object>
        <object label="" id="GibcG0ukoYKMALdT_NOP-69">
          <ag_attributes />
          <ag_computed_attributes />
          <mxCell style="edgeStyle=none;rounded=0;orthogonalLoop=1;jettySize=auto;html=1;strokeWidth=2;strokeColor=#000000;" parent="1" source="GibcG0ukoYKMALdT_NOP-5" target="GibcG0ukoYKMALdT_NOP-66" edge="1">
            <mxGeometry relative="1" as="geometry">
              <mxPoint x="1962.0000000000002" y="460" as="sourcePoint" />
              <mxPoint x="1958" y="500" as="targetPoint" />
            </mxGeometry>
          </mxCell>
        </object>
        <object label="3" id="GibcG0ukoYKMALdT_NOP-70">
          <ag_attributes />
          <ag_computed_attributes />
          <mxCell style="edgeStyle=none;rounded=0;orthogonalLoop=1;jettySize=auto;html=1;strokeWidth=2;fontSize=15;strokeColor=#000000;" parent="1" source="GibcG0ukoYKMALdT_NOP-2" target="klrI8ASNvey-aRUypi-8-154" edge="1">
            <mxGeometry relative="1" as="geometry">
              <mxPoint x="1500.9999999999995" y="198" as="sourcePoint" />
              <mxPoint x="1501" y="350" as="targetPoint" />
            </mxGeometry>
          </mxCell>
        </object>
        <object label="4" id="GibcG0ukoYKMALdT_NOP-71">
          <ag_attributes />
          <ag_computed_attributes />
          <mxCell style="edgeStyle=none;rounded=0;orthogonalLoop=1;jettySize=auto;html=1;strokeWidth=2;fontSize=15;strokeColor=#000000;" parent="1" source="GibcG0ukoYKMALdT_NOP-9" target="klrI8ASNvey-aRUypi-8-154" edge="1">
            <mxGeometry relative="1" as="geometry">
              <mxPoint x="1889" y="162" as="sourcePoint" />
              <mxPoint x="1550.3500000000004" y="347.4200000000001" as="targetPoint" />
            </mxGeometry>
          </mxCell>
        </object>
        <object label="" id="GibcG0ukoYKMALdT_NOP-76">
          <ag_attributes />
          <ag_computed_attributes />
          <mxCell style="edgeStyle=none;rounded=0;orthogonalLoop=1;jettySize=auto;html=1;strokeWidth=2;strokeColor=#000000;" parent="1" source="GibcG0ukoYKMALdT_NOP-72" target="GibcG0ukoYKMALdT_NOP-75" edge="1">
            <mxGeometry relative="1" as="geometry" />
          </mxCell>
        </object>
        <object label="Falsche Eingabe von Kapazitätsverfügbarkeiten Betreiber-intern (zu hoch/zu niedrig)" Resources="" Knowledge="" Location="" id="GibcG0ukoYKMALdT_NOP-72">
          <ag_attributes label="NaN" Resources="4" Knowledge="5" Location="0" _marking="GibcG0ukoYKMALdT_NOP-75" />
          <ag_computed_attributes fillColor="#40ff00" fontColor="#000000" value="1" />
          <ag_computed_attributes_function_reference ag_computed_attributes_function_reference="dbg60ff69g9a" />
          <ag_aggregation_function_reference ag_aggregation_function_reference="6b1d22791hih8" />
          <mxCell style="whiteSpace=wrap;shape=attackgraphs.node;verticalAlign=top;" parent="1" vertex="1">
            <mxGeometry x="1360" y="360" width="200" height="75" as="geometry" />
          </mxCell>
        </object>
        <object label="3" id="GibcG0ukoYKMALdT_NOP-74">
          <ag_attributes />
          <ag_computed_attributes />
          <mxCell style="edgeStyle=none;rounded=0;orthogonalLoop=1;jettySize=auto;html=1;strokeWidth=2;fontSize=15;strokeColor=#000000;" parent="1" source="GibcG0ukoYKMALdT_NOP-2" target="GibcG0ukoYKMALdT_NOP-72" edge="1">
            <mxGeometry relative="1" as="geometry">
              <mxPoint x="1995.922330097087" y="198" as="sourcePoint" />
              <mxPoint x="1970.0970873786405" y="350" as="targetPoint" />
            </mxGeometry>
          </mxCell>
        </object>
        <object id="xFWX6aBsAHrzGVwmru2x-2">
          <ag_attributes />
          <ag_computed_attributes />
          <mxCell style="rounded=0;orthogonalLoop=1;jettySize=auto;html=1;strokeWidth=2;entryX=0.5;entryY=0;entryDx=0;entryDy=0;startArrow=diamondThin;startFill=1;endArrow=none;endFill=0;strokeColor=#000000;" parent="1" source="GibcG0ukoYKMALdT_NOP-75" target="xFWX6aBsAHrzGVwmru2x-1" edge="1">
            <mxGeometry relative="1" as="geometry" />
          </mxCell>
        </object>
        <object id="xFWX6aBsAHrzGVwmru2x-4">
          <ag_attributes />
          <ag_computed_attributes />
          <mxCell style="edgeStyle=none;rounded=0;orthogonalLoop=1;jettySize=auto;html=1;strokeWidth=2;startArrow=diamondThin;startFill=1;endArrow=none;endFill=0;strokeColor=#000000;" parent="1" source="GibcG0ukoYKMALdT_NOP-75" target="xFWX6aBsAHrzGVwmru2x-8" edge="1">
            <mxGeometry relative="1" as="geometry">
              <mxPoint x="1290" y="710" as="sourcePoint" />
            </mxGeometry>
          </mxCell>
        </object>
        <object label="Missbrauch von Rechten oder Admin-Zugriff" Resources="2" Knowledge="3" Location="0" id="GibcG0ukoYKMALdT_NOP-75">
          <ag_attributes label="NaN" Resources="4" Knowledge="5" Location="0" />
          <ag_computed_attributes fillColor="#40ff00" fontColor="#000000" value="1" />
          <ag_computed_attributes_function_reference ag_computed_attributes_function_reference="dbg60ff69g9a" />
          <ag_aggregation_function_reference ag_aggregation_function_reference="73f575i0ghij5" />
          <mxCell style="whiteSpace=wrap;fillColor=#d7e3bf;shape=attackgraphs.node;verticalAlign=top;spacing=2;spacingRight=10;spacingLeft=10;" parent="1" vertex="1">
            <mxGeometry x="1170" y="620" width="180" height="60" as="geometry" />
          </mxCell>
        </object>
        <object label="" id="GibcG0ukoYKMALdT_NOP-78">
          <ag_attributes />
          <ag_computed_attributes />
          <mxCell style="edgeStyle=none;rounded=0;orthogonalLoop=1;jettySize=auto;html=1;strokeWidth=2;strokeColor=#000000;" parent="1" source="GibcG0ukoYKMALdT_NOP-72" target="GibcG0ukoYKMALdT_NOP-66" edge="1">
            <mxGeometry relative="1" as="geometry">
              <mxPoint x="1415.4000000000005" y="459.99999999999955" as="sourcePoint" />
              <mxPoint x="1486" y="489.99999999999955" as="targetPoint" />
            </mxGeometry>
          </mxCell>
        </object>
        <object label="" id="GibcG0ukoYKMALdT_NOP-83">
          <ag_attributes />
          <ag_computed_attributes />
          <mxCell style="edgeStyle=none;rounded=0;orthogonalLoop=1;jettySize=auto;html=1;strokeWidth=2;strokeColor=#000000;" parent="1" source="GibcG0ukoYKMALdT_NOP-72" target="GibcG0ukoYKMALdT_NOP-30" edge="1">
            <mxGeometry relative="1" as="geometry">
              <mxPoint x="1904.7857142857142" y="460" as="sourcePoint" />
              <mxPoint x="1824.5" y="500" as="targetPoint" />
            </mxGeometry>
          </mxCell>
        </object>
        <object id="xFWX6aBsAHrzGVwmru2x-18">
          <ag_attributes />
          <ag_computed_attributes />
          <mxCell style="edgeStyle=none;rounded=0;orthogonalLoop=1;jettySize=auto;html=1;strokeWidth=2;startArrow=diamondThin;startFill=1;endArrow=none;endFill=0;strokeColor=#000000;" parent="1" source="OEw5c0MragIOnn9nujKi-1" target="xFWX6aBsAHrzGVwmru2x-16" edge="1">
            <mxGeometry relative="1" as="geometry">
              <mxPoint x="1400" y="930" as="sourcePoint" />
            </mxGeometry>
          </mxCell>
        </object>
        <object id="i_3JiyIKNexwzJ78FQyn-3">
          <ag_attributes />
          <ag_computed_attributes />
          <mxCell style="edgeStyle=none;rounded=0;orthogonalLoop=1;jettySize=auto;html=1;strokeWidth=2;startArrow=diamondThin;startFill=1;endArrow=none;endFill=0;strokeColor=#000000;" parent="1" source="OEw5c0MragIOnn9nujKi-1" target="xFWX6aBsAHrzGVwmru2x-8" edge="1">
            <mxGeometry relative="1" as="geometry" />
          </mxCell>
        </object>
        <object label="Angriff auf das&#xa;Meldeportal (Online-Portal) selbst" Resources="2" Knowledge="2" Location="0" id="OEw5c0MragIOnn9nujKi-1">
          <ag_attributes label="NaN" Resources="4" Knowledge="5" Location="0" />
          <ag_computed_attributes fillColor="#40ff00" fontColor="#000000" value="1" />
          <ag_computed_attributes_function_reference ag_computed_attributes_function_reference="dbg60ff69g9a" />
          <ag_aggregation_function_reference ag_aggregation_function_reference="73f575i0ghij5" />
          <mxCell style="whiteSpace=wrap;fillColor=#d7e3bf;shape=attackgraphs.node;verticalAlign=top;" parent="1" vertex="1">
            <mxGeometry x="1350" y="790" width="190" height="70" as="geometry" />
          </mxCell>
        </object>
        <object id="SLV6t_ctuBkV2WSloGJu-2">
          <ag_aggregation_function_reference ag_aggregation_function_reference="gf0d4f199018" />
          <ag_attributes label="NaN" Resources="5" Knowledge="5" Location="0" _marking="GibcG0ukoYKMALdT_NOP-66;GibcG0ukoYKMALdT_NOP-51" />
          <ag_computed_attributes fillColor="#40ff00" fontColor="#000000" value="1" />
          <ag_computed_attributes_function_reference ag_computed_attributes_function_reference="dbg60ff69g9a" />
          <mxCell style="shape=or;whiteSpace=wrap;html=1;rotation=-90;" parent="1" vertex="1">
            <mxGeometry x="2785" y="490" width="40" height="60" as="geometry" />
          </mxCell>
        </object>
        <object id="SLV6t_ctuBkV2WSloGJu-5">
          <ag_aggregation_function_reference ag_aggregation_function_reference="gf0d4f199018" />
          <ag_attributes label="NaN" Resources="5" Knowledge="5" Location="1" _marking="GibcG0ukoYKMALdT_NOP-41;GibcG0ukoYKMALdT_NOP-42" />
          <ag_computed_attributes />
          <mxCell style="shape=or;whiteSpace=wrap;html=1;rotation=-90;" parent="1" vertex="1">
            <mxGeometry x="3135" y="480" width="40" height="60" as="geometry" />
          </mxCell>
        </object>
        <object label="Netzsegmentierung&#xa;Firewall" Resources="1" Knowledge="1" Location="0" id="xFWX6aBsAHrzGVwmru2x-1">
          <ag_attributes />
          <ag_computed_attributes />
          <mxCell style="shape=attackgraphs.node;fillColor=#DAE8FC;verticalAlign=top;" parent="1" vertex="1">
            <mxGeometry x="1185" y="1010" width="150" height="60" as="geometry" />
          </mxCell>
        </object>
        <object label="Redundanz&#xa;Skalierbarkeit" Resources="2" Knowledge="2" Location="0" id="xFWX6aBsAHrzGVwmru2x-6">
          <ag_attributes />
          <ag_computed_attributes />
          <mxCell style="shape=attackgraphs.node;fillColor=#DAE8FC;verticalAlign=top;" parent="1" vertex="1">
            <mxGeometry x="990" y="1010" width="150" height="60" as="geometry" />
          </mxCell>
        </object>
        <object label="Zugriffsschutz&#xa;Multi-Faktor-Authentifizierung" Resources="1" Knowledge="1" Location="0" id="xFWX6aBsAHrzGVwmru2x-8">
          <ag_attributes />
          <ag_computed_attributes />
          <mxCell style="shape=attackgraphs.node;fillColor=#DAE8FC;verticalAlign=top;whiteSpace=wrap;" parent="1" vertex="1">
            <mxGeometry x="1500" y="1010" width="120" height="75" as="geometry" />
          </mxCell>
        </object>
        <object label="Verschlüsselung" Resources="1" Knowledge="1" Location="0" id="xFWX6aBsAHrzGVwmru2x-11">
          <ag_attributes />
          <ag_computed_attributes />
          <mxCell style="shape=attackgraphs.node;fillColor=#DAE8FC;verticalAlign=top;" parent="1" vertex="1">
            <mxGeometry x="1630" y="1010" width="120" height="60" as="geometry" />
          </mxCell>
        </object>
        <object label="Systemhärtung" Resources="1" Knowledge="2" Location="0" id="xFWX6aBsAHrzGVwmru2x-16">
          <ag_attributes />
          <ag_computed_attributes />
          <mxCell style="shape=attackgraphs.node;fillColor=#DAE8FC;verticalAlign=top;" parent="1" vertex="1">
            <mxGeometry x="1360" y="1010" width="120" height="60" as="geometry" />
          </mxCell>
        </object>
        <object label="Sicherer Speicher" Resources="2" Knowledge="2" Location="1" id="xFWX6aBsAHrzGVwmru2x-19">
          <ag_attributes />
          <ag_computed_attributes />
          <mxCell style="shape=attackgraphs.node;fillColor=#DAE8FC;verticalAlign=top;" parent="1" vertex="1">
            <mxGeometry x="2474" y="1010" width="150" height="60" as="geometry" />
          </mxCell>
        </object>
        <object label="Digitale Signatur" Resources="2" Knowledge="2" Location="1" id="xFWX6aBsAHrzGVwmru2x-22">
          <ag_attributes />
          <ag_computed_attributes />
          <mxCell style="shape=attackgraphs.node;fillColor=#DAE8FC;verticalAlign=top;" parent="1" vertex="1">
            <mxGeometry x="2030" y="1010" width="120" height="60" as="geometry" />
          </mxCell>
        </object>
        <object label="Mitarbeiterschulung" Resources="1" Knowledge="1" Location="0" id="zgUMjGu3cQBzoBFUC8GA-1">
          <ag_attributes />
          <ag_computed_attributes />
          <mxCell style="shape=attackgraphs.node;fillColor=#DAE8FC;verticalAlign=top;" parent="1" vertex="1">
            <mxGeometry x="1760" y="1010" width="120" height="60" as="geometry" />
          </mxCell>
        </object>
        <object id="zgUMjGu3cQBzoBFUC8GA-2">
          <ag_attributes />
          <ag_computed_attributes />
          <mxCell style="edgeStyle=none;rounded=0;orthogonalLoop=1;jettySize=auto;html=1;strokeWidth=2;startArrow=diamondThin;startFill=1;endArrow=none;endFill=0;strokeColor=#000000;" parent="1" source="GibcG0ukoYKMALdT_NOP-68" target="zgUMjGu3cQBzoBFUC8GA-1" edge="1">
            <mxGeometry relative="1" as="geometry">
              <mxPoint x="1672.6162790697676" y="860" as="sourcePoint" />
              <mxPoint x="1726.6860465116279" y="1010" as="targetPoint" />
              <Array as="points" />
            </mxGeometry>
          </mxCell>
        </object>
        <object id="zgUMjGu3cQBzoBFUC8GA-4">
          <ag_attributes />
          <ag_computed_attributes />
          <mxCell style="rounded=0;orthogonalLoop=1;jettySize=auto;html=1;strokeWidth=2;endArrow=none;startArrow=diamondThin;startFill=1;endFill=0;strokeColor=#000000;" parent="1" source="GibcG0ukoYKMALdT_NOP-42" target="zgUMjGu3cQBzoBFUC8GA-1" edge="1">
            <mxGeometry relative="1" as="geometry">
              <mxPoint x="2730" y="810" as="sourcePoint" />
              <mxPoint x="1865" y="1138.7" as="targetPoint" />
            </mxGeometry>
          </mxCell>
        </object>
        <object id="zgUMjGu3cQBzoBFUC8GA-5">
          <ag_attributes />
          <ag_computed_attributes />
          <mxCell style="edgeStyle=none;rounded=0;orthogonalLoop=1;jettySize=auto;html=1;strokeWidth=2;startArrow=diamondThin;startFill=1;endArrow=none;endFill=0;strokeColor=#000000;" parent="1" source="GibcG0ukoYKMALdT_NOP-42" target="zgUMjGu3cQBzoBFUC8GA-6" edge="1">
            <mxGeometry relative="1" as="geometry">
              <mxPoint x="3339.5454545454545" y="750" as="sourcePoint" />
            </mxGeometry>
          </mxCell>
        </object>
        <object label="Dokumentenklassifizierung&#xa;Need-to-Know-Prinzip" Resources="2" Knowledge="2" Location="0" id="zgUMjGu3cQBzoBFUC8GA-6">
          <ag_attributes />
          <ag_computed_attributes />
          <mxCell style="shape=attackgraphs.node;fillColor=#DAE8FC;verticalAlign=top;align=left;" parent="1" vertex="1">
            <mxGeometry x="2900" y="1000" width="166" height="60" as="geometry" />
          </mxCell>
        </object>
        <object id="zgUMjGu3cQBzoBFUC8GA-7">
          <ag_attributes />
          <ag_computed_attributes />
          <mxCell style="edgeStyle=none;rounded=0;orthogonalLoop=1;jettySize=auto;html=1;strokeWidth=2;startArrow=diamondThin;startFill=1;endArrow=none;endFill=0;strokeColor=#000000;" parent="1" source="GibcG0ukoYKMALdT_NOP-51" target="zgUMjGu3cQBzoBFUC8GA-6" edge="1">
            <mxGeometry relative="1" as="geometry">
              <mxPoint x="2820" y="800" as="sourcePoint" />
              <mxPoint x="2811.842105263158" y="1110" as="targetPoint" />
            </mxGeometry>
          </mxCell>
        </object>
        <object label="" id="CU6JF89L4VS3xL4PW_TU-1">
          <ag_attributes />
          <ag_computed_attributes />
          <mxCell style="endArrow=none;dashed=1;html=1;rounded=0;strokeWidth=1;strokeColor=#000000;" parent="1" edge="1">
            <mxGeometry width="50" height="50" relative="1" as="geometry">
              <mxPoint x="960" y="1120" as="sourcePoint" />
              <mxPoint x="3280" y="1120" as="targetPoint" />
            </mxGeometry>
          </mxCell>
        </object>
        <object id="CU6JF89L4VS3xL4PW_TU-2">
          <ag_attributes />
          <ag_computed_attributes />
          <mxCell style="edgeStyle=none;rounded=0;orthogonalLoop=1;jettySize=auto;html=1;strokeWidth=2;startArrow=diamondThin;startFill=1;endArrow=none;endFill=0;strokeColor=#000000;" parent="1" source="GibcG0ukoYKMALdT_NOP-41" target="xFWX6aBsAHrzGVwmru2x-8" edge="1">
            <mxGeometry relative="1" as="geometry">
              <mxPoint x="2559" y="690" as="sourcePoint" />
              <mxPoint x="2559" y="1020" as="targetPoint" />
            </mxGeometry>
          </mxCell>
        </object>
      </root>
    </mxGraphModel>
  </diagram>
</mxfile>
